<svg xmlns="http://www.w3.org/2000/svg" viewBox="0 0 20 20"><defs><style>.cls-1{fill:#5b9bf8;}</style></defs><title>payrexx</title><g id="Layer_2" data-name="Layer 2"><g id="Layer_1-2" data-name="Layer 1"><path class="cls-1" d="M0,0V20H20V0ZM13.09,15.83a6.67,6.67,0,0,1-3.48.76,6.49,6.49,0,0,1-2.07-.47.18.18,0,0,1-.13-.2V13.11a.92.92,0,0,1,0-.15l.2.17A4,4,0,0,0,9.76,14a3.91,3.91,0,0,0,4.16-3,4.15,4.15,0,0,0-1.06-4,3.67,3.67,0,0,0-2.48-1.16,3.77,3.77,0,0,0-2.85,1l-.12.09V6.05H6.16v9.3L6,15.25a6.37,6.37,0,0,1-2.51-4.13A6.37,6.37,0,0,1,4.78,6a6.44,6.44,0,0,1,4.27-2.5,6.59,6.59,0,0,1,4,12.35ZM7.45,9.91A2.79,2.79,0,0,1,10.11,7a2.79,2.79,0,0,1,2.66,2.91,2.79,2.79,0,0,1-2.66,2.91A2.79,2.79,0,0,1,7.45,9.91Z"/></g></g></svg>