<svg xmlns="http://www.w3.org/2000/svg" width="65" height="18" viewBox="0 0 65 18" fill="none">
  <path fill-rule="evenodd" clip-rule="evenodd" d="M27.9118 5.9903L25.8809 8.93882L23.8379 5.9903H22.2181L25.0468 9.95389L22.073 14.1108H23.6929L25.8809 10.981L28.0447 14.1108H29.6646L26.6908 9.95389L29.5195 5.9903H27.9118Z" fill="#5470DE"/>
  <path fill-rule="evenodd" clip-rule="evenodd" d="M34.0588 7.05265C34.6511 7.05265 35.1105 7.246 35.4248 7.6206C35.727 7.98313 35.8963 8.51483 35.9083 9.19154H31.9796C32.0521 8.539 32.2697 8.01938 32.6082 7.64477C32.9708 7.246 33.4544 7.05265 34.0588 7.05265ZM34.0709 5.84424C32.9829 5.84424 32.1005 6.23093 31.4598 7.00431C30.8191 7.76561 30.4927 8.81693 30.4927 10.1099C30.4927 11.4029 30.8432 12.418 31.5323 13.143C32.2213 13.8681 33.1884 14.2427 34.3852 14.2427C34.9292 14.2427 35.3885 14.2065 35.7754 14.1219C36.1622 14.0373 36.5732 13.9043 36.9963 13.7231L37.0568 13.6989V12.4059L36.9117 12.4663C36.0897 12.8168 35.2556 12.998 34.4215 12.998C33.6478 12.998 33.0313 12.7684 32.6082 12.3092C32.1972 11.8621 31.9675 11.2096 31.9312 10.3637H37.3952V9.50573C37.3952 8.41816 37.093 7.52393 36.5007 6.8593C35.9084 6.18259 35.0863 5.84424 34.0709 5.84424Z" fill="#5470DE"/>
  <path fill-rule="evenodd" clip-rule="evenodd" d="M43.0822 5.84424C42.5261 5.84424 42.0063 5.953 41.559 6.17051C41.1601 6.36386 40.8216 6.62971 40.5799 6.96806L40.3985 5.97716H39.238V14.0977H40.6403V9.84408C40.6403 8.8411 40.8216 8.11605 41.1964 7.69311C41.559 7.27017 42.1514 7.05265 42.9371 7.05265C43.5295 7.05265 43.9647 7.19766 44.2427 7.49976C44.5207 7.80187 44.6537 8.26106 44.6537 8.87735V14.0977H46.056V8.82902C46.056 7.78978 45.8021 7.02848 45.3065 6.54512C44.8109 6.08592 44.0614 5.84424 43.0822 5.84424Z" fill="#5470DE"/>
  <path fill-rule="evenodd" clip-rule="evenodd" d="M51.4213 13.0347C50.7323 13.0347 50.2246 12.793 49.874 12.3096C49.5234 11.8142 49.3421 11.065 49.3421 10.0862C49.3421 9.11942 49.5234 8.35813 49.8861 7.82642C50.2367 7.30681 50.7444 7.05304 51.4213 7.05304C52.2071 7.05304 52.7753 7.28264 53.1258 7.72975C53.4885 8.18895 53.6698 8.97442 53.6698 10.062V10.3158C53.6698 11.2825 53.4885 11.9834 53.1379 12.4063C52.7753 12.8292 52.2071 13.0347 51.4213 13.0347ZM53.6456 5.98964L53.6698 6.54551L53.7061 6.90803C53.1258 6.19507 52.3038 5.83254 51.2642 5.83254C50.2004 5.83254 49.3663 6.20715 48.774 6.95637C48.1816 7.6935 47.8794 8.73273 47.8794 10.062C47.8794 11.3792 48.1816 12.4184 48.7619 13.1434C49.3542 13.8685 50.2004 14.2431 51.2642 14.2431C52.3401 14.2431 53.1742 13.8685 53.7423 13.1193L53.8874 14.0981H55.06V2.6665H53.6577L53.6456 5.98964Z" fill="#5470DE"/>
  <path fill-rule="evenodd" clip-rule="evenodd" d="M58.1117 3.04102C57.882 3.04102 57.6886 3.11352 57.5314 3.25853C57.3743 3.40354 57.3018 3.63314 57.3018 3.93524C57.3018 4.23734 57.3743 4.45486 57.5314 4.61195C57.6886 4.76905 57.882 4.84155 58.1117 4.84155C58.3293 4.84155 58.5227 4.76905 58.6799 4.61195C58.837 4.45486 58.9216 4.23734 58.9216 3.93524C58.9216 3.63314 58.837 3.41562 58.6799 3.25853C58.5227 3.11352 58.3293 3.04102 58.1117 3.04102Z" fill="#5470DE"/>
  <path fill-rule="evenodd" clip-rule="evenodd" d="M57.3962 14.1108H58.8106V5.99023H57.3962V14.1108Z" fill="#5470DE"/>
  <path fill-rule="evenodd" clip-rule="evenodd" d="M64.867 12.9138C64.7582 12.9501 64.6011 12.9742 64.4077 13.0105C64.2142 13.0347 64.0208 13.0588 63.8032 13.0588C63.4406 13.0588 63.1504 12.9501 62.9449 12.7084C62.7394 12.4788 62.6306 12.1284 62.6306 11.6812V7.12553H64.9275V5.98962H62.6306V4.15283H61.7603L61.2405 5.86878L60.092 6.37631V7.12553H61.2284V11.7296C61.2284 13.3972 62.0383 14.2552 63.634 14.2552C63.8395 14.2552 64.0692 14.231 64.3351 14.1947C64.6011 14.1464 64.7945 14.0981 64.9396 14.0256L65 14.0014V12.8776L64.867 12.9138Z" fill="#5470DE"/>
  <path d="M10.2346 0H5.19639L0 9L5.19639 18L6.22437 16.2271L2.05596 9L6.22437 1.78419H9.20664L10.2346 0Z" fill="#5470DE"/>
  <path d="M6.68913 6.10915L7.70582 4.34754L6.22598 1.78418L5.198 3.54579L6.68913 6.10915Z" fill="#4D71F7"/>
  <path d="M12.5181 1.78418L13.5461 3.55708L6.22598 16.2271L5.198 14.4542L12.5181 1.78418Z" fill="#4D71F7"/>
  <path d="M8.52173 18L9.53841 16.2271H12.5207L16.6891 9L12.5207 1.78419L13.5487 0L18.7451 9L13.5487 18H8.52173Z" fill="#5470DE"/>
  <path d="M12.0294 11.8569L11.0015 13.6298L12.5152 16.2271L13.5432 14.4655L12.0294 11.8569Z" fill="#4D71F7"/>
</svg>