<svg width="80" height="80" viewBox="0 0 80 80" fill="none" xmlns="http://www.w3.org/2000/svg">
<path fill-rule="evenodd" clip-rule="evenodd" d="M36.1605 36.4941L34.1638 39.4042L32.1552 36.4941H30.5625L33.3437 40.406L30.4199 44.5087H32.0126L34.1638 41.4197L36.2913 44.5087H37.8839L34.9601 40.406L37.7413 36.4941H36.1605Z" fill="#446CB3"/>
<path fill-rule="evenodd" clip-rule="evenodd" d="M42.1976 37.5442C42.78 37.5442 43.2316 37.735 43.5406 38.1047C43.8377 38.4625 44.0041 38.9873 44.016 39.6552H40.1533C40.2246 39.0111 40.4385 38.4983 40.7713 38.1286C41.1279 37.735 41.6033 37.5442 42.1976 37.5442ZM42.2095 36.3516C41.1398 36.3516 40.2722 36.7332 39.6422 37.4965C39.0123 38.2479 38.6914 39.2855 38.6914 40.5616C38.6914 41.8377 39.0361 42.8395 39.7135 43.5551C40.391 44.2707 41.3418 44.6404 42.5185 44.6404C43.0533 44.6404 43.505 44.6046 43.8853 44.5211C44.2656 44.4377 44.6697 44.3065 45.0857 44.1276L45.1451 44.1037V42.8276L45.0025 42.8872C44.1943 43.2331 43.3742 43.412 42.5541 43.412C41.7935 43.412 41.1873 43.1854 40.7713 42.7322C40.3672 42.2909 40.1414 41.6469 40.1058 40.812H45.4779V39.9653C45.4779 38.8919 45.1808 38.0093 44.5984 37.3534C44.016 36.6855 43.2078 36.3516 42.2095 36.3516Z" fill="#446CB3"/>
<path fill-rule="evenodd" clip-rule="evenodd" d="M51.0764 36.3516C50.5297 36.3516 50.0186 36.4589 49.5789 36.6736C49.1866 36.8644 48.8538 37.1268 48.6161 37.4607L48.4379 36.4828H47.2969V44.4973H48.6756V40.2992C48.6756 39.3093 48.8538 38.5937 49.2223 38.1763C49.5789 37.7589 50.1612 37.5442 50.9338 37.5442C51.5162 37.5442 51.944 37.6873 52.2174 37.9855C52.4908 38.2836 52.6215 38.7368 52.6215 39.3451V44.4973H54.0002V39.2974C54.0002 38.2717 53.7506 37.5203 53.2633 37.0433C52.776 36.5901 52.0391 36.3516 51.0764 36.3516Z" fill="#446CB3"/>
<path fill-rule="evenodd" clip-rule="evenodd" d="M59.2773 43.4477C58.5999 43.4477 58.1007 43.2092 57.756 42.7321C57.4113 42.2431 57.233 41.5037 57.233 40.5376C57.233 39.5835 57.4113 38.8322 57.7679 38.3074C58.1126 37.7946 58.6117 37.5441 59.2773 37.5441C60.0499 37.5441 60.6085 37.7707 60.9531 38.212C61.3097 38.6652 61.488 39.4404 61.488 40.5138V40.7642C61.488 41.7184 61.3097 42.4101 60.965 42.8275C60.6085 43.2449 60.0499 43.4477 59.2773 43.4477ZM61.4642 36.4946L61.488 37.0432L61.5236 37.401C60.9531 36.6974 60.1449 36.3396 59.1228 36.3396C58.0769 36.3396 57.2568 36.7093 56.6744 37.4487C56.0921 38.1762 55.7949 39.2019 55.7949 40.5138C55.7949 41.8138 56.0921 42.8394 56.6626 43.555C57.2449 44.2706 58.0769 44.6403 59.1228 44.6403C60.1806 44.6403 61.0007 44.2706 61.5593 43.5312L61.7019 44.4972H62.8548V33.2148H61.4761L61.4642 36.4946Z" fill="#446CB3"/>
<path fill-rule="evenodd" clip-rule="evenodd" d="M65.851 33.585C65.6252 33.585 65.435 33.6565 65.2805 33.7996C65.126 33.9428 65.0547 34.1694 65.0547 34.4675C65.0547 34.7657 65.126 34.9803 65.2805 35.1354C65.435 35.2904 65.6252 35.362 65.851 35.362C66.0649 35.362 66.2551 35.2904 66.4096 35.1354C66.5641 34.9803 66.6473 34.7657 66.6473 34.4675C66.6473 34.1694 66.5641 33.9547 66.4096 33.7996C66.2551 33.6565 66.0649 33.585 65.851 33.585Z" fill="#446CB3"/>
<path fill-rule="evenodd" clip-rule="evenodd" d="M65.1484 44.5087H66.539V36.4941H65.1484V44.5087Z" fill="#446CB3"/>
<path fill-rule="evenodd" clip-rule="evenodd" d="M72.4935 43.3283C72.3866 43.3641 72.232 43.3879 72.0419 43.4237C71.8517 43.4475 71.6616 43.4714 71.4476 43.4714C71.0911 43.4714 70.8058 43.3641 70.6038 43.1255C70.4017 42.8989 70.2947 42.5531 70.2947 42.1118V37.6155H72.553V36.4945H70.2947V34.6816H69.439L68.9279 36.3752L67.7988 36.8761V37.6155H68.916V42.1595C68.916 43.8053 69.7124 44.6521 71.2812 44.6521C71.4833 44.6521 71.7091 44.6283 71.9706 44.5925C72.232 44.5448 72.4222 44.4971 72.5648 44.4255L72.6243 44.4017V43.2925L72.4935 43.3283Z" fill="#446CB3"/>
<path d="M17.9673 30.4004H12.6665L7.19922 39.9057L12.6665 49.4111L13.748 47.5386L9.36234 39.9057L13.748 32.2848H16.8857L17.9673 30.4004Z" fill="#446CB3"/>
<path d="M14.2349 36.853L15.3046 34.9924L13.7476 32.2852L12.666 34.1457L14.2349 36.853Z" fill="#D24D57"/>
<path d="M20.3677 32.2852L21.4493 34.1576L13.7476 47.539L12.666 45.6666L20.3677 32.2852Z" fill="#D24D57"/>
<path d="M16.1602 49.4111L17.2298 47.5386H20.3676L24.7532 39.9057L20.3676 32.2848L21.4491 30.4004L26.9164 39.9057L21.4491 49.4111H16.1602Z" fill="#446CB3"/>
<path d="M19.857 42.9229L18.7754 44.7953L20.368 47.5384L21.4496 45.6778L19.857 42.9229Z" fill="#D24D57"/>
</svg>
