<?xml version="1.0" encoding="UTF-8"?><svg id="Layer_1" xmlns="http://www.w3.org/2000/svg" viewBox="0 0 80 80"><defs><style>.cls-1{fill:#00aeef;}.cls-2{fill:#fff;}</style></defs><path class="cls-2" d="M53.67,26.56c-5.64-6.35-16.48-8.78-25.29-1.34-.31-.14-.18-.43-.18-.65q-.05-2.77-2.9-2.77t-2.94,2.89V63.9c-.15,.08-.27,.1-.38,.08,1.98,1.49,4.14,2.74,6.46,3.71-.16-.14-.26-.34-.26-.67,.02-4.42,0-8.84,0-13.55,8.66,7.3,19.59,5.39,25.5-1.14,6.37-7.03,6.38-18.57-.02-25.77Zm-5.26,22.9c-4.78,4.64-12.16,4.35-16.59-.63-4.54-5.1-4.64-13.28-.22-18.49,5.96-7.03,16.43-5.06,19.89,3.75,.37,.93,.64,1.91,.83,2.9,.17,.84,.16,1.7,.2,2.18,0,4.25-1.33,7.58-4.11,10.29Z"/><path class="cls-1" d="M69.99,40.68c0,.21-.01,.42-.02,.62,0,.22-.02,.45-.04,.67h0c-.01,.18-.02,.35-.04,.52-.42,5.01-2.08,9.72-4.69,13.78-.09,.13-.18,.27-.26,.4-.11,.16-.22,.33-.33,.49-.02,.02-.03,.04-.04,.05-.08,.12-.16,.23-.24,.34-.08,.12-.17,.23-.25,.35-.02,.03-.05,.06-.07,.09-.13,.18-.27,.35-.41,.53-.12,.16-.25,.31-.38,.47-.08,.1-.17,.2-.25,.3h0c-.14,.18-.29,.35-.43,.52-5.5,6.25-13.56,10.2-22.54,10.2-4.1,0-8-.82-11.56-2.31-.16-.14-.26-.34-.26-.67,.02-4.42,0-8.84,0-13.55,8.66,7.3,19.59,5.39,25.5-1.14,6.37-7.03,6.38-18.57-.02-25.77-5.64-6.35-16.48-8.78-25.29-1.34-.31-.14-.18-.43-.18-.65q-.05-2.77-2.9-2.77t-2.94,2.89V63.9c-.15,.08-.27,.1-.38,.08-4.75-3.57-8.41-8.53-10.37-14.26-.03-.07-.05-.14-.07-.22-.96-2.85-1.49-5.89-1.53-9.06,0-.41,0-.82,0-1.23,.06-2.31,.38-4.56,.93-6.71,.06-.23,.12-.46,.18-.68,0-.03,.02-.06,.02-.08,.06-.22,.12-.43,.19-.64v-.03c.07-.19,.13-.38,.19-.56,.04-.12,.08-.24,.12-.35,2.98-8.51,9.76-15.39,18.47-18.48,.15-.05,.3-.11,.45-.15,.17-.06,.33-.11,.5-.16,2.82-.88,5.81-1.35,8.92-1.35,1.81,0,3.58,.16,5.3,.47,.15,.03,.3,.05,.45,.08,8.41,1.73,15.93,7.1,20.27,14.52,0,0,0,.01,.01,.02,.08,.13,.15,.26,.22,.39,1.89,3.41,3.13,7.22,3.57,11.28,.02,.14,.03,.28,.04,.41,0,.06,0,.12,.01,.17,.02,.22,.04,.43,.05,.65v.12c.03,.34,.05,.67,.05,1.01,.02,.52,.02,1.04,0,1.56Z"/><path class="cls-1" d="M52.52,39.17c0,4.25-1.33,7.58-4.11,10.29-4.78,4.64-12.16,4.35-16.59-.63-4.54-5.1-4.64-13.28-.22-18.49,5.96-7.03,16.43-5.06,19.89,3.75,.37,.93,.64,1.91,.83,2.9,.17,.84,.16,1.7,.2,2.18Z"/></svg>